HIERARCHY
ROOT Hips
{
	OFFSET	0.00	0.00	0.00
	CHANNELS 6 Xposition Yposition Zposition Zrotation Xrotation Yrotation
	JOINT LeftUpLeg
	{
		OFFSET	 0.126116	-0.014019	-0.065224
		CHANNELS 3 Zrotation Xrotation Yrotation
		JOINT LeftLeg
		{
			OFFSET	 0.000000	 0.000000	 0.569914
			CHANNELS 3 Zrotation Xrotation Yrotation
			JOINT LeftFoot
			{
				OFFSET	 0.000000	 0.000000	 0.544423
				CHANNELS 3 Zrotation Xrotation Yrotation
				JOINT LeftToeBase
				{
					OFFSET	 0.000000	 0.000000	 0.207117
					CHANNELS 3 Zrotation Xrotation Yrotation
					End Site
					{
						OFFSET	 0.000000	 0.000000	 0.207117
					}
				}
			}
		}
	}
	JOINT RightUpLeg
	{
		OFFSET	-0.124023	-0.008373	-0.065224
		CHANNELS 3 Zrotation Xrotation Yrotation
		JOINT RightLeg
		{
			OFFSET	 0.000000	 0.000000	 0.570047
			CHANNELS 3 Zrotation Xrotation Yrotation
			JOINT RightFoot
			{
				OFFSET	 0.000000	 0.000000	 0.544354
				CHANNELS 3 Zrotation Xrotation Yrotation
				JOINT RightToeBase
				{
					OFFSET	 0.000000	 0.000000	 0.207540
					CHANNELS 3 Zrotation Xrotation Yrotation
					End Site
					{
						OFFSET	 0.000000	 0.000000	 0.207540
					}
				}
			}
		}
	}
	JOINT Spine
	{
		OFFSET	 0.000184	-0.007763	 0.117403
		CHANNELS 3 Zrotation Xrotation Yrotation
		JOINT Spine1
		{
			OFFSET	 0.000000	 0.000000	 0.137269
			CHANNELS 3 Zrotation Xrotation Yrotation
			JOINT Spine2
			{
				OFFSET	 0.000000	 0.000000	 0.156879
				CHANNELS 3 Zrotation Xrotation Yrotation
				JOINT LeftShoulder
				{
					OFFSET	 0.080501	-0.002496	 0.160144
					CHANNELS 3 Zrotation Xrotation Yrotation
					JOINT LeftArm
					{
						OFFSET	 0.000000	 0.000000	 0.164363
						CHANNELS 3 Zrotation Xrotation Yrotation
						JOINT LeftForeArm
						{
							OFFSET	 0.000000	 0.000000	 0.364576
							CHANNELS 3 Zrotation Xrotation Yrotation
							JOINT LeftHand
							{
								OFFSET	 0.000000	 0.000000	 0.360812
								CHANNELS 3 Zrotation Xrotation Yrotation
								JOINT LeftHandIndex1
								{
									OFFSET	 0.000000	 0.000000	 0.086006
									CHANNELS 3 Zrotation Xrotation Yrotation
									JOINT LeftHandIndex2
									{
										OFFSET	 0.000000	 0.000000	 0.047236
										CHANNELS 3 Zrotation Xrotation Yrotation
										JOINT LeftHandIndex3
										{
											OFFSET	-0.004284	-0.000551	 0.038166
											CHANNELS 3 Zrotation Xrotation Yrotation
											End Site
											{
												OFFSET	-0.004284	-0.000551	 0.038166
											}
										}
									}
								}
							}
						}
					}
				}
				JOINT Neck
				{
					OFFSET	 0.000000	 0.000000	 0.176489
					CHANNELS 3 Zrotation Xrotation Yrotation
					JOINT Head
					{
						OFFSET	 0.000000	-0.001747	 0.077940
						CHANNELS 3 Zrotation Xrotation Yrotation
						End Site
						{
							OFFSET	 0.000000	-0.001747	 0.077940
						}
					}
				}
				JOINT RightShoulder
				{
					OFFSET	-0.080363	 0.000306	 0.159706
					CHANNELS 3 Zrotation Xrotation Yrotation
					JOINT RightArm
					{
						OFFSET	 0.000000	 0.000000	 0.164196
						CHANNELS 3 Zrotation Xrotation Yrotation
						JOINT RightForeArm
						{
							OFFSET	 0.000000	 0.000000	 0.365611
							CHANNELS 3 Zrotation Xrotation Yrotation
							JOINT RightHand
							{
								OFFSET	 0.000000	 0.000000	 0.360648
								CHANNELS 3 Zrotation Xrotation Yrotation
								JOINT RightHandIndex1
								{
									OFFSET	 0.000000	 0.000000	 0.069977
									CHANNELS 3 Zrotation Xrotation Yrotation
									JOINT RightHandIndex2
									{
										OFFSET	 0.000000	 0.000000	 0.052305
										CHANNELS 3 Zrotation Xrotation Yrotation
										JOINT RightHandIndex3
										{
											OFFSET	 0.009002	-0.000782	 0.042196
											CHANNELS 3 Zrotation Xrotation Yrotation
											End Site
											{
												OFFSET	 0.009002	-0.000782	 0.042196
											}
										}
									}
								}
							}
						}
					}
				}
			}
		}
	}
}
MOTION
Frames:    4
Frame Time: 0.03333334
-0.094510	 6.801447	 1.274737	-98.503520	 1.034273	 0.912666	-30.547220	-6.436199	-176.719900	 17.460050	-41.756860	 5.624708	-90.367780	 76.111370	 67.987300	-2.180198	 47.892400	-0.511826	 17.048340	-4.722835	-173.989100	-9.697045	-38.220790	-0.994166	 46.330970	 74.326810	-31.200620	 1.961368	 56.317790	 0.850367	-19.009870	 6.199455	 1.467361	 1.010031	 6.964623	-3.306383	 6.024097	-23.500690	 5.701470	-91.229320	 83.958310	 178.242600	 37.344860	 51.725120	-69.758260	-23.379260	 8.986103	-15.552570	 47.742260	-18.351520	-6.354770	-11.827550	 9.697289	-26.527590	-5.213937	-0.202400	 3.566957	-1.378229	 35.397820	-2.634230	-2.014136	 4.242135	 3.243497	-4.972699	-12.936380	-15.774000	 87.726850	 87.418820	-176.798800	-11.205540	 75.156270	-7.481940	 14.883040	 8.732658	 58.120880	-43.392470	-25.265290	-0.176336	-0.933089	 25.182010	-61.788810	 5.070519	-0.690904	-9.399550	-2.350882	 35.473990	 5.254307
-0.092572	 6.819664	 1.275792	-94.084350	 1.615471	 1.652828	-32.644630	-7.279737	-178.147600	 18.528290	-43.106490	 6.510033	-89.244990	 75.116600	 66.936560	-2.207199	 46.411290	-0.463139	 13.202150	-3.915794	-175.070000	-7.816431	-36.304590	 0.162207	 42.094870	 75.454540	-27.552850	 1.996382	 55.241560	 0.800397	-16.720690	 5.592057	 1.038120	 0.609900	 8.298139	-3.828732	 7.737438	-24.928570	 6.515510	-91.229260	 83.958270	 178.242600	 33.635240	 52.596230	-65.033150	-22.041790	 8.732352	-15.396350	 48.488660	-14.461150	-6.625181	-11.453950	 9.699244	-25.207980	-5.213937	-0.202400	 3.566957	-1.378229	 35.397820	-2.634230	 0.042710	 4.839508	 0.582852	-2.943206	-15.081060	-11.717030	 87.726720	 87.418960	-176.798700	-9.690851	 74.471150	-8.720128	 15.088710	 8.661175	 58.834680	-42.948880	-20.449400	 1.756270	-1.510989	 24.407340	-62.227730	 5.070519	-0.690904	-9.399550	-2.350882	 35.473990	 5.254307
-0.088631	 6.841795	 1.277209	-88.968100	 2.513436	 2.283284	-34.607410	-8.591556	-179.931100	 19.916310	-44.632050	 7.682117	-86.709580	 74.087060	 64.475100	-2.242768	 44.212910	-0.394950	 8.490466	-3.248571	-176.167500	-5.623102	-33.985200	 1.379825	 35.885860	 76.795320	-22.163720	 2.074758	 52.497510	 0.683470	-13.884540	 5.163854	 0.721015	-0.227927	 9.944670	-4.727126	 10.682190	-27.116340	 8.212874	-91.229190	 83.958310	 178.242500	 26.055420	 54.288540	-56.495530	-20.440350	 8.281628	-15.102090	 47.203130	-9.597086	-6.227086	-11.063710	 9.252031	-23.469670	-5.213937	-0.202400	 3.566957	-1.378229	 35.397820	-2.634230	 3.131551	 6.481411	-3.104515	 0.159406	-18.654100	-6.081530	 87.726780	 87.418890	-176.798800	-8.678993	 73.814670	-9.151516	 14.781150	 7.847486	 59.771180	-43.045830	-14.370620	 4.301009	-1.324088	 24.765830	-62.562930	 5.070519	-0.690904	-9.399550	-2.350882	 35.473990	 5.254307
-0.086281	 6.852371	 1.277812	-86.623040	 2.956785	 2.403881	-35.192120	-9.358242	 179.321700	 20.290790	-45.318940	 8.044956	-84.487010	 73.736200	 62.478650	-2.270514	 42.246320	-0.337584	 6.351243	-2.984671	-176.538500	-4.551534	-32.931640	 1.925565	 32.193590	 77.221890	-19.000550	 2.040262	 53.768930	 0.735903	-12.397040	 4.947901	 0.626850	-0.719445	 10.867970	-5.033994	 12.336760	-28.117670	 9.131891	-91.229200	 83.958340	 178.242500	 20.608510	 55.466580	-50.997620	-19.515710	 8.001122	-14.912730	 45.547050	-7.398680	-5.542893	-11.090480	 8.724180	-23.161580	-5.213937	-0.202400	 3.566957	-1.378229	 35.397820	-2.634230	 4.899605	 7.214859	-5.282634	 2.065145	-20.171620	-2.689424	 87.727190	 87.419040	-176.799100	-8.490115	 73.501140	-8.871551	 14.626830	 7.349373	 60.243310	-43.024170	-11.415900	 5.547773	-0.608125	 25.814690	-62.481080	 5.070519	-0.690904	-9.399550	-2.350882	 35.473990	 5.254307
